<mxfile host="app.diagrams.net" modified="2023-03-04T08:43:30.309Z" agent="5.0 (Windows NT 10.0; Win64; x64) AppleWebKit/537.36 (KHTML, like Gecko) Chrome/109.0.0.0 Safari/537.36" etag="O8kfhEzzFEksAfPruk1v" version="20.8.23" type="github">
  <diagram name="第 1 页" id="tmT2RR1lodhnAHv4D_R7">
    <mxGraphModel dx="1297" dy="857" grid="1" gridSize="10" guides="1" tooltips="1" connect="1" arrows="1" fold="1" page="1" pageScale="1" pageWidth="827" pageHeight="1169" math="0" shadow="0">
      <root>
        <mxCell id="0" />
        <mxCell id="1" parent="0" />
        <mxCell id="kYDgO-iVy2G29Fc55NM5-2" value="" style="endArrow=none;html=1;rounded=0;fontSize=24;strokeWidth=3;" edge="1" parent="1">
          <mxGeometry width="50" height="50" relative="1" as="geometry">
            <mxPoint x="100" y="600" as="sourcePoint" />
            <mxPoint x="100" y="100" as="targetPoint" />
          </mxGeometry>
        </mxCell>
        <mxCell id="kYDgO-iVy2G29Fc55NM5-3" value="Session" style="text;html=1;strokeColor=none;fillColor=none;align=center;verticalAlign=middle;whiteSpace=wrap;rounded=0;fontSize=24;" vertex="1" parent="1">
          <mxGeometry x="60" y="70" width="90" height="30" as="geometry" />
        </mxCell>
        <mxCell id="kYDgO-iVy2G29Fc55NM5-6" value="" style="endArrow=none;html=1;rounded=0;fontSize=24;strokeWidth=3;" edge="1" parent="1">
          <mxGeometry width="50" height="50" relative="1" as="geometry">
            <mxPoint x="300" y="600" as="sourcePoint" />
            <mxPoint x="300" y="100" as="targetPoint" />
          </mxGeometry>
        </mxCell>
        <mxCell id="kYDgO-iVy2G29Fc55NM5-7" value="Server" style="text;html=1;strokeColor=none;fillColor=none;align=center;verticalAlign=middle;whiteSpace=wrap;rounded=0;fontSize=24;" vertex="1" parent="1">
          <mxGeometry x="260" y="70" width="90" height="30" as="geometry" />
        </mxCell>
        <mxCell id="kYDgO-iVy2G29Fc55NM5-8" value="" style="endArrow=none;html=1;rounded=0;fontSize=24;strokeWidth=3;" edge="1" parent="1">
          <mxGeometry width="50" height="50" relative="1" as="geometry">
            <mxPoint x="500" y="600" as="sourcePoint" />
            <mxPoint x="500" y="100" as="targetPoint" />
          </mxGeometry>
        </mxCell>
        <mxCell id="kYDgO-iVy2G29Fc55NM5-9" value="" style="endArrow=none;html=1;rounded=0;fontSize=24;strokeWidth=3;" edge="1" parent="1">
          <mxGeometry width="50" height="50" relative="1" as="geometry">
            <mxPoint x="700" y="600" as="sourcePoint" />
            <mxPoint x="700" y="100" as="targetPoint" />
          </mxGeometry>
        </mxCell>
        <mxCell id="kYDgO-iVy2G29Fc55NM5-10" value="Binary Log" style="text;html=1;strokeColor=none;fillColor=none;align=center;verticalAlign=middle;whiteSpace=wrap;rounded=0;fontSize=24;" vertex="1" parent="1">
          <mxGeometry x="450" y="70" width="120" height="30" as="geometry" />
        </mxCell>
        <mxCell id="kYDgO-iVy2G29Fc55NM5-11" value="Engine" style="text;html=1;strokeColor=none;fillColor=none;align=center;verticalAlign=middle;whiteSpace=wrap;rounded=0;fontSize=24;" vertex="1" parent="1">
          <mxGeometry x="640" y="70" width="120" height="30" as="geometry" />
        </mxCell>
        <mxCell id="kYDgO-iVy2G29Fc55NM5-12" value="" style="endArrow=classic;html=1;rounded=0;strokeWidth=2;fontSize=24;" edge="1" parent="1">
          <mxGeometry width="50" height="50" relative="1" as="geometry">
            <mxPoint x="100" y="130" as="sourcePoint" />
            <mxPoint x="300" y="130" as="targetPoint" />
          </mxGeometry>
        </mxCell>
        <mxCell id="kYDgO-iVy2G29Fc55NM5-13" value="&lt;font style=&quot;font-size: 18px;&quot;&gt;commit&lt;/font&gt;" style="text;html=1;strokeColor=none;fillColor=none;align=center;verticalAlign=middle;whiteSpace=wrap;rounded=0;fontSize=24;" vertex="1" parent="1">
          <mxGeometry x="160" y="100" width="80" height="30" as="geometry" />
        </mxCell>
        <mxCell id="kYDgO-iVy2G29Fc55NM5-14" value="" style="endArrow=classic;html=1;rounded=0;strokeWidth=2;fontSize=24;" edge="1" parent="1">
          <mxGeometry width="50" height="50" relative="1" as="geometry">
            <mxPoint x="300" y="160" as="sourcePoint" />
            <mxPoint x="700" y="160" as="targetPoint" />
          </mxGeometry>
        </mxCell>
        <mxCell id="kYDgO-iVy2G29Fc55NM5-15" value="&lt;font style=&quot;font-size: 18px;&quot;&gt;prepare&lt;/font&gt;" style="text;html=1;strokeColor=none;fillColor=none;align=center;verticalAlign=middle;whiteSpace=wrap;rounded=0;fontSize=24;" vertex="1" parent="1">
          <mxGeometry x="420" y="130" width="80" height="30" as="geometry" />
        </mxCell>
        <mxCell id="kYDgO-iVy2G29Fc55NM5-17" value="&lt;span style=&quot;color: rgb(0, 0, 0); font-family: Helvetica; font-size: 12px; font-style: normal; font-variant-ligatures: normal; font-variant-caps: normal; font-weight: 400; letter-spacing: normal; orphans: 2; text-align: left; text-indent: 0px; text-transform: none; widows: 2; word-spacing: 0px; -webkit-text-stroke-width: 0px; background-color: rgb(251, 251, 251); text-decoration-thickness: initial; text-decoration-style: initial; text-decoration-color: initial; float: none; display: inline !important;&quot;&gt;准备阶段时，SQL已经成功执行，XID、Redo、Undo已经生成，将事务标记为 trx_prepared，将Redo刷盘&lt;/span&gt;&lt;br style=&quot;border-color: var(--border-color); color: rgb(0, 0, 0); font-family: Helvetica; font-size: 12px; font-style: normal; font-variant-ligatures: normal; font-variant-caps: normal; font-weight: 400; letter-spacing: normal; orphans: 2; text-align: left; text-indent: 0px; text-transform: none; widows: 2; word-spacing: 0px; -webkit-text-stroke-width: 0px; background-color: rgb(251, 251, 251); text-decoration-thickness: initial; text-decoration-style: initial; text-decoration-color: initial;&quot;&gt;" style="text;whiteSpace=wrap;html=1;fontSize=12;" vertex="1" parent="1">
          <mxGeometry x="710" y="150" width="300" height="50" as="geometry" />
        </mxCell>
        <mxCell id="kYDgO-iVy2G29Fc55NM5-18" value="" style="endArrow=none;dashed=1;html=1;rounded=0;strokeWidth=2;fontSize=12;startArrow=classic;startFill=1;" edge="1" parent="1">
          <mxGeometry width="50" height="50" relative="1" as="geometry">
            <mxPoint x="300" y="200" as="sourcePoint" />
            <mxPoint x="700" y="200" as="targetPoint" />
          </mxGeometry>
        </mxCell>
        <mxCell id="kYDgO-iVy2G29Fc55NM5-19" value="&lt;span style=&quot;font-size: 18px;&quot;&gt;ok&lt;/span&gt;" style="text;html=1;strokeColor=none;fillColor=none;align=center;verticalAlign=middle;whiteSpace=wrap;rounded=0;fontSize=24;" vertex="1" parent="1">
          <mxGeometry x="420" y="170" width="80" height="30" as="geometry" />
        </mxCell>
        <mxCell id="kYDgO-iVy2G29Fc55NM5-20" value="" style="endArrow=classic;html=1;rounded=0;strokeWidth=2;fontSize=24;" edge="1" parent="1">
          <mxGeometry width="50" height="50" relative="1" as="geometry">
            <mxPoint x="300" y="260" as="sourcePoint" />
            <mxPoint x="500" y="260" as="targetPoint" />
          </mxGeometry>
        </mxCell>
        <mxCell id="kYDgO-iVy2G29Fc55NM5-21" value="&lt;font style=&quot;font-size: 18px;&quot;&gt;write&lt;/font&gt;" style="text;html=1;strokeColor=none;fillColor=none;align=center;verticalAlign=middle;whiteSpace=wrap;rounded=0;fontSize=24;" vertex="1" parent="1">
          <mxGeometry x="360" y="230" width="80" height="30" as="geometry" />
        </mxCell>
        <mxCell id="kYDgO-iVy2G29Fc55NM5-22" value="" style="endArrow=none;dashed=1;html=1;rounded=0;strokeWidth=2;fontSize=12;startArrow=classic;startFill=1;" edge="1" parent="1">
          <mxGeometry width="50" height="50" relative="1" as="geometry">
            <mxPoint x="300" y="300" as="sourcePoint" />
            <mxPoint x="500" y="300" as="targetPoint" />
          </mxGeometry>
        </mxCell>
        <mxCell id="kYDgO-iVy2G29Fc55NM5-23" value="&lt;span style=&quot;font-size: 18px;&quot;&gt;ok&lt;/span&gt;" style="text;html=1;strokeColor=none;fillColor=none;align=center;verticalAlign=middle;whiteSpace=wrap;rounded=0;fontSize=24;" vertex="1" parent="1">
          <mxGeometry x="360" y="270" width="80" height="30" as="geometry" />
        </mxCell>
        <mxCell id="kYDgO-iVy2G29Fc55NM5-24" value="&lt;span style=&quot;font-family: Helvetica; font-size: 12px; font-style: normal; font-variant-ligatures: normal; font-variant-caps: normal; font-weight: 400; letter-spacing: normal; orphans: 2; text-align: left; text-indent: 0px; text-transform: none; widows: 2; word-spacing: 0px; -webkit-text-stroke-width: 0px; background-color: rgb(251, 251, 251); text-decoration-thickness: initial; text-decoration-style: initial; text-decoration-color: initial; float: none; display: inline !important;&quot;&gt;&lt;font color=&quot;#ff0000&quot;&gt;Redo写入成功后将数据写入Binlog中&lt;/font&gt;&lt;/span&gt;&lt;span style=&quot;color: rgb(0, 0, 0); font-family: Helvetica; font-size: 12px; font-style: normal; font-variant-ligatures: normal; font-variant-caps: normal; font-weight: 400; letter-spacing: normal; orphans: 2; text-align: left; text-indent: 0px; text-transform: none; widows: 2; word-spacing: 0px; -webkit-text-stroke-width: 0px; background-color: rgb(251, 251, 251); text-decoration-thickness: initial; text-decoration-style: initial; text-decoration-color: initial; float: none; display: inline !important;&quot;&gt;，此时还是保存在系统的FileCache中&lt;/span&gt;" style="text;whiteSpace=wrap;html=1;fontSize=12;" vertex="1" parent="1">
          <mxGeometry x="710" y="250" width="300" height="50" as="geometry" />
        </mxCell>
        <mxCell id="kYDgO-iVy2G29Fc55NM5-25" value="" style="endArrow=classic;html=1;rounded=0;strokeWidth=2;fontSize=24;" edge="1" parent="1">
          <mxGeometry width="50" height="50" relative="1" as="geometry">
            <mxPoint x="300" y="360" as="sourcePoint" />
            <mxPoint x="500" y="360" as="targetPoint" />
          </mxGeometry>
        </mxCell>
        <mxCell id="kYDgO-iVy2G29Fc55NM5-26" value="&lt;font style=&quot;font-size: 18px;&quot;&gt;fsync&lt;/font&gt;" style="text;html=1;strokeColor=none;fillColor=none;align=center;verticalAlign=middle;whiteSpace=wrap;rounded=0;fontSize=24;" vertex="1" parent="1">
          <mxGeometry x="360" y="330" width="80" height="30" as="geometry" />
        </mxCell>
        <mxCell id="kYDgO-iVy2G29Fc55NM5-27" value="" style="endArrow=none;dashed=1;html=1;rounded=0;strokeWidth=2;fontSize=12;startArrow=classic;startFill=1;" edge="1" parent="1">
          <mxGeometry width="50" height="50" relative="1" as="geometry">
            <mxPoint x="300" y="400" as="sourcePoint" />
            <mxPoint x="500" y="400" as="targetPoint" />
          </mxGeometry>
        </mxCell>
        <mxCell id="kYDgO-iVy2G29Fc55NM5-28" value="&lt;span style=&quot;font-size: 18px;&quot;&gt;ok&lt;/span&gt;" style="text;html=1;strokeColor=none;fillColor=none;align=center;verticalAlign=middle;whiteSpace=wrap;rounded=0;fontSize=24;" vertex="1" parent="1">
          <mxGeometry x="360" y="370" width="80" height="30" as="geometry" />
        </mxCell>
        <mxCell id="kYDgO-iVy2G29Fc55NM5-29" value="将Binlog从缓存写入到磁盘，通过sync_binlog参数控制" style="text;whiteSpace=wrap;html=1;fontSize=12;" vertex="1" parent="1">
          <mxGeometry x="710" y="350" width="300" height="50" as="geometry" />
        </mxCell>
        <mxCell id="kYDgO-iVy2G29Fc55NM5-30" value="" style="endArrow=classic;html=1;rounded=0;strokeWidth=2;fontSize=24;" edge="1" parent="1">
          <mxGeometry width="50" height="50" relative="1" as="geometry">
            <mxPoint x="300" y="460" as="sourcePoint" />
            <mxPoint x="700" y="460" as="targetPoint" />
          </mxGeometry>
        </mxCell>
        <mxCell id="kYDgO-iVy2G29Fc55NM5-31" value="&lt;font style=&quot;font-size: 18px;&quot;&gt;commit&lt;/font&gt;" style="text;html=1;strokeColor=none;fillColor=none;align=center;verticalAlign=middle;whiteSpace=wrap;rounded=0;fontSize=24;" vertex="1" parent="1">
          <mxGeometry x="420" y="430" width="80" height="30" as="geometry" />
        </mxCell>
        <mxCell id="kYDgO-iVy2G29Fc55NM5-32" value="" style="endArrow=none;dashed=1;html=1;rounded=0;strokeWidth=2;fontSize=12;startArrow=classic;startFill=1;" edge="1" parent="1">
          <mxGeometry width="50" height="50" relative="1" as="geometry">
            <mxPoint x="300" y="500" as="sourcePoint" />
            <mxPoint x="700" y="500" as="targetPoint" />
          </mxGeometry>
        </mxCell>
        <mxCell id="kYDgO-iVy2G29Fc55NM5-33" value="&lt;span style=&quot;font-size: 18px;&quot;&gt;ok&lt;/span&gt;" style="text;html=1;strokeColor=none;fillColor=none;align=center;verticalAlign=middle;whiteSpace=wrap;rounded=0;fontSize=24;" vertex="1" parent="1">
          <mxGeometry x="420" y="470" width="80" height="30" as="geometry" />
        </mxCell>
        <mxCell id="kYDgO-iVy2G29Fc55NM5-34" value="通知引擎提交，会将Binlog的文件名、位置等信息写入到Redo中，事务标记为trx_not_started状态，是否刷新到磁盘通过 innodb_flush_log_at_trx_commit参数控制" style="text;whiteSpace=wrap;html=1;fontSize=12;" vertex="1" parent="1">
          <mxGeometry x="710" y="450" width="300" height="50" as="geometry" />
        </mxCell>
        <mxCell id="kYDgO-iVy2G29Fc55NM5-35" value="" style="endArrow=none;dashed=1;html=1;rounded=0;strokeWidth=2;fontSize=12;startArrow=classic;startFill=1;" edge="1" parent="1">
          <mxGeometry width="50" height="50" relative="1" as="geometry">
            <mxPoint x="100" y="560" as="sourcePoint" />
            <mxPoint x="300" y="560" as="targetPoint" />
          </mxGeometry>
        </mxCell>
        <mxCell id="kYDgO-iVy2G29Fc55NM5-36" value="&lt;span style=&quot;font-size: 18px;&quot;&gt;ok&lt;/span&gt;" style="text;html=1;strokeColor=none;fillColor=none;align=center;verticalAlign=middle;whiteSpace=wrap;rounded=0;fontSize=24;" vertex="1" parent="1">
          <mxGeometry x="150" y="530" width="80" height="30" as="geometry" />
        </mxCell>
      </root>
    </mxGraphModel>
  </diagram>
</mxfile>
